<svg width="15" height="9" viewBox="0 0 15 9" fill="none" xmlns="http://www.w3.org/2000/svg">
<path fill-rule="evenodd" clip-rule="evenodd" d="M10.2552 8.20187C9.99638 8.50379 9.54184 8.53875 9.23993 8.27997C8.93801 8.02118 8.90305 7.56665 9.16183 7.26473L11.5316 4.49997L9.16183 1.7352C8.90305 1.43329 8.93801 0.97875 9.23993 0.719966C9.54184 0.461182 9.99637 0.496146 10.2552 0.79806L12.8704 3.84917C13.1914 4.22366 13.1914 4.77627 12.8704 5.15076L10.2552 8.20187Z" fill="white"/>
<path d="M1 3.5C0.447715 3.5 -4.82823e-08 3.94772 0 4.5C4.82823e-08 5.05229 0.447715 5.5 1 5.5L1 3.5ZM12 3.5L1 3.5L1 5.5L12 5.5L12 3.5Z" fill="white"/>
</svg>
