<svg width="25" height="25" viewBox="0 0 25 25" fill="none" xmlns="http://www.w3.org/2000/svg">
<path d="M9.375 22.6562C9.375 23.9508 8.32578 25 7.03125 25C5.73672 25 4.6875 23.9508 4.6875 22.6562C4.6875 21.3617 5.73672 20.3125 7.03125 20.3125C8.32578 20.3125 9.375 21.3617 9.375 22.6562Z" fill="#CC876A"/>
<path d="M25 22.6562C25 23.9508 23.9508 25 22.6562 25C21.3617 25 20.3125 23.9508 20.3125 22.6562C20.3125 21.3617 21.3617 20.3125 22.6562 20.3125C23.9508 20.3125 25 21.3617 25 22.6562Z" fill="#CC876A"/>
<path d="M25 12.5V3.125H6.25C6.25 2.26172 5.55078 1.5625 4.6875 1.5625H0V3.125H3.125L4.29844 13.1852C3.58359 13.7578 3.125 14.6375 3.125 15.625C3.125 17.3508 4.52422 18.75 6.25 18.75H25V17.1875H6.25C5.38672 17.1875 4.6875 16.4883 4.6875 15.625C4.6875 15.6195 4.6875 15.6141 4.6875 15.6094L25 12.5Z" fill="#CC876A"/>
</svg>
