<svg width="19" height="18" viewBox="0 0 19 18" fill="none" xmlns="http://www.w3.org/2000/svg">
<path d="M12.25 0H1.75C0.7875 0 0 1.0125 0 2.25V15.75C0 16.9875 0.7875 18 1.75 18H12.25C13.2125 18 14 16.9875 14 15.75V2.25C14 1.0125 13.2125 0 12.25 0ZM12.25 15.75H1.75V2.25H12.25V15.75Z" fill="#CC876A"/>
<rect x="11" y="4" width="3" height="9" fill="#FEFCEF"/>
<rect x="11" y="4" width="3" height="9" fill="#FEFCEF"/>
<path fill-rule="evenodd" clip-rule="evenodd" d="M8.74484 4.79813C9.00362 4.49621 9.45816 4.46125 9.76007 4.72003C10.062 4.97882 10.097 5.43335 9.83817 5.73527L7.46837 8.50003L9.83817 11.2648C10.097 11.5667 10.062 12.0213 9.76007 12.28C9.45816 12.5388 9.00362 12.5039 8.74484 12.2019L6.1296 9.15083C5.80861 8.77634 5.80861 8.22373 6.1296 7.84924L8.74484 4.79813Z" fill="#CC876A"/>
<path d="M18 9.5C18.5523 9.5 19 9.05228 19 8.5C19 7.94772 18.5523 7.5 18 7.5V9.5ZM7 9.5H18V7.5H7V9.5Z" fill="#CC876A"/>
</svg>
