<svg width="28" height="27" viewBox="0 0 28 27" fill="none" xmlns="http://www.w3.org/2000/svg">
<g clip-path="url(#clip0_231_1090)">
<path d="M14 2.43071C17.7406 2.43071 18.1834 2.44674 19.6542 2.51002C21.0219 2.56824 21.7595 2.7893 22.2521 2.97409C22.9031 3.21709 23.373 3.5124 23.8595 3.98152C24.3521 4.45655 24.6522 4.90459 24.9095 5.53234C25.1011 6.00737 25.3304 6.72371 25.3907 8.03743C25.4564 9.46168 25.473 9.88862 25.473 13.4906C25.473 17.0926 25.4564 17.5246 25.3907 18.9437C25.3304 20.2625 25.1011 20.9738 24.9095 21.4488C24.6575 22.0766 24.3521 22.5297 23.8647 22.9988C23.3721 23.4738 22.9075 23.7632 22.2574 24.0113C21.7647 24.1961 21.021 24.4171 19.6595 24.4754C18.1825 24.5386 17.7397 24.5547 14.0044 24.5547C10.269 24.5547 9.821 24.5386 8.34925 24.4754C6.98162 24.4171 6.244 24.1961 5.75137 24.0113C5.10037 23.7683 4.6305 23.4738 4.14313 23.0039C3.6505 22.5288 3.35037 22.0808 3.09312 21.4539C2.9015 20.9789 2.67225 20.2617 2.61187 18.9488C2.54625 17.5246 2.52962 17.0976 2.52962 13.4956C2.52962 9.89368 2.54625 9.46168 2.61187 8.04249C2.67225 6.72371 2.9015 6.01243 3.09312 5.5374C3.34512 4.90965 3.65137 4.45655 4.13787 3.98659C4.6305 3.51155 5.09512 3.22215 5.74612 2.97409C6.23875 2.7893 6.98162 2.56824 8.344 2.51002C9.81487 2.44674 10.2585 2.43071 13.9991 2.43071H14ZM14 -0.000132812C10.199 -0.000132812 9.72387 0.0158984 8.23025 0.0791797C6.74275 0.142461 5.71987 0.374492 4.83437 0.70693C3.91037 1.05455 3.12812 1.51355 2.352 2.26787C1.56975 3.01712 1.09375 3.77059 0.73325 4.65652C0.3885 5.5163 0.147875 6.49674 0.08225 7.93112C0.016625 9.37646 0 9.83462 0 13.4999C0 17.1651 0.016625 17.6233 0.08225 19.0636C0.147875 20.4979 0.3885 21.4843 0.73325 22.3381C1.09462 23.2291 1.56975 23.9835 2.352 24.7319C3.12812 25.4803 3.91037 25.9452 4.82912 26.2877C5.72075 26.6202 6.7375 26.8522 8.225 26.9155C9.71775 26.9788 10.1937 26.9948 13.9947 26.9948C17.7957 26.9948 18.2717 26.9788 19.7645 26.9155C21.252 26.8522 22.2749 26.6202 23.1604 26.2877C24.0791 25.9452 24.8614 25.4811 25.6375 24.7319C26.4136 23.9826 26.8957 23.2291 27.251 22.3432C27.5957 21.4834 27.8364 20.503 27.902 19.0686C27.9676 17.6292 27.9842 17.1702 27.9842 13.5049C27.9842 9.83968 27.9676 9.38152 27.902 7.94124C27.8364 6.50687 27.5957 5.52052 27.251 4.66665C26.9062 3.76974 26.4302 3.01627 25.6489 2.26702C24.8727 1.51862 24.0905 1.05371 23.1717 0.711148C22.2801 0.378711 21.2634 0.14668 19.7759 0.0833984C18.2779 0.0150547 17.8019 -0.000976562 14.0009 -0.000976562L14 -0.000132812Z" fill="white"/>
<path d="M14 6.56543C10.0301 6.56543 6.80835 9.67127 6.80835 13.5002C6.80835 17.3291 10.0292 20.435 14 20.435C17.9707 20.435 21.1916 17.3291 21.1916 13.5002C21.1916 9.67212 17.9707 6.56543 14 6.56543ZM14 17.9982C11.424 17.9982 9.33535 15.9842 9.33535 13.5002C9.33535 11.0162 11.424 9.00218 14 9.00218C16.576 9.00218 18.6646 11.0162 18.6646 13.5002C18.6646 15.9842 16.576 17.9982 14 17.9982Z" fill="white"/>
<path d="M23.1541 6.29103C23.1541 7.18541 22.4025 7.91019 21.475 7.91019C20.5475 7.91019 19.7959 7.18541 19.7959 6.29103C19.7959 5.39666 20.5475 4.67188 21.475 4.67188C22.4025 4.67188 23.1541 5.39666 23.1541 6.29103Z" fill="white"/>
</g>
<defs>
<clipPath id="clip0_231_1090">
<rect width="28" height="27" fill="white"/>
</clipPath>
</defs>
</svg>
