<svg width="28" height="27" viewBox="0 0 28 27" fill="none" xmlns="http://www.w3.org/2000/svg">
<path d="M10.5 10.125H15.3431V12.5187H15.4123C16.086 11.3535 17.7354 10.125 20.1932 10.125C25.305 10.125 26.25 13.1937 26.25 17.1847V25.3125H21.2021V18.1069C21.2021 16.3882 21.1654 14.1775 18.5763 14.1775C15.9469 14.1775 15.5461 16.049 15.5461 17.982V25.3125H10.5V10.125Z" fill="white"/>
<path d="M1.75 10.125H7V25.3125H1.75V10.125Z" fill="white"/>
<path d="M7 5.90625C7 7.30434 5.82487 8.4375 4.375 8.4375C2.92513 8.4375 1.75 7.30434 1.75 5.90625C1.75 4.50816 2.92513 3.375 4.375 3.375C5.82487 3.375 7 4.50816 7 5.90625Z" fill="white"/>
</svg>
