<svg width="28" height="27" viewBox="0 0 28 27" fill="none" xmlns="http://www.w3.org/2000/svg">
<path d="M14 1.80371C7.301 1.80371 1.86987 7.04002 1.86987 13.5006C1.86987 18.4576 5.06887 22.6865 9.58125 24.3901C9.47712 23.467 9.37912 22.0436 9.625 21.0361C9.84375 20.1241 11.0469 15.2252 11.0469 15.2252C11.0469 15.2252 10.6864 14.5241 10.6864 13.4905C10.6864 11.8663 11.6655 10.6479 12.8791 10.6479C13.9125 10.6479 14.4156 11.3963 14.4156 12.2932C14.4156 13.2956 13.7541 14.7983 13.4094 16.1854C13.1197 17.3506 14.0114 18.2999 15.2031 18.2999C17.3574 18.2999 19.0146 16.1061 19.0146 12.9421C19.0146 10.1416 16.926 8.18499 13.951 8.18499C10.5 8.18499 8.477 10.6791 8.477 13.2635C8.477 14.271 8.876 15.3467 9.37912 15.9323C9.478 16.0479 9.49375 16.1483 9.46137 16.2698C9.36862 16.6394 9.16562 17.435 9.12275 17.5987C9.06762 17.8147 8.94775 17.8569 8.71762 17.7573C7.203 17.0773 6.25625 14.9417 6.25625 13.2272C6.25625 9.53584 9.03437 6.15071 14.2677 6.15071C18.473 6.15071 21.7437 9.04055 21.7437 12.9058C21.7437 16.9347 19.1082 20.1831 15.449 20.1831C14.2187 20.1831 13.0646 19.5663 12.6709 18.8382C12.6709 18.8382 12.0636 21.0691 11.9157 21.6175C11.6419 22.6351 10.9042 23.9057 10.4064 24.6811C11.5439 25.0186 12.747 25.2034 13.9991 25.2034C20.6981 25.2034 26.1292 19.9671 26.1292 13.5065C26.1292 7.04171 20.699 1.80455 13.9991 1.80455L14 1.80371Z" fill="white"/>
</svg>
