<svg width="28" height="27" viewBox="0 0 28 27" fill="none" xmlns="http://www.w3.org/2000/svg">
<g clip-path="url(#clip0_231_1178)">
<path d="M28.0001 5.96953C26.972 6.4125 25.8616 6.70781 24.7022 6.83944C25.8887 6.15347 26.797 5.06756 27.2284 3.77578C26.118 4.40859 24.8877 4.87266 23.5805 5.12072C22.5305 4.04494 21.0377 3.375 19.3857 3.375C16.2139 3.375 13.6431 5.85394 13.6431 8.91253C13.6431 9.34453 13.6921 9.76641 13.791 10.1731C9.017 9.94106 4.78375 7.73634 1.95137 4.38328C1.45875 5.20088 1.17525 6.15516 1.17525 7.16766C1.17525 9.08719 2.18675 10.7848 3.72937 11.7771C2.78875 11.7509 1.90325 11.4978 1.12625 11.086C1.12625 11.1071 1.12625 11.1333 1.12625 11.1544C1.12625 13.8383 3.10637 16.0802 5.73662 16.5856C5.25537 16.7122 4.747 16.7805 4.222 16.7805C3.85012 16.7805 3.49487 16.7434 3.13962 16.6801C3.87287 18.8789 5.99475 20.482 8.50425 20.5301C6.5355 22.0168 4.06362 22.9036 1.36775 22.9036C0.903123 22.9036 0.448998 22.8774 -0.00512695 22.8243C2.54375 24.4013 5.56162 25.3133 8.80525 25.3133C19.3709 25.3133 25.1511 16.8708 25.1511 9.55125C25.1511 9.30909 25.1459 9.07116 25.1345 8.83406C26.2554 8.05866 27.2292 7.08328 28.0001 5.97038V5.96953Z" fill="white"/>
</g>
<defs>
<clipPath id="clip0_231_1178">
<rect width="28" height="27" fill="white"/>
</clipPath>
</defs>
</svg>
